<?xml version="1.0" encoding="UTF-8"?>
<svg width="163px" height="32px" viewBox="0 0 163 32" version="1.1" xmlns="http://www.w3.org/2000/svg" xmlns:xlink="http://www.w3.org/1999/xlink">
    <!-- Generator: Sketch 58 (84663) - https://sketch.com -->
    <title>logo 2</title>
    <desc>Created with Sketch.</desc>
    <defs>
        <linearGradient x1="49.995%" y1="130.655%" x2="49.995%" y2="0.005%" id="linearGradient-1">
            <stop stop-color="#009EFD" offset="0%"></stop>
            <stop stop-color="#2AF598" offset="100%"></stop>
        </linearGradient>
    </defs>
    <g id="页面-1" stroke="none" stroke-width="1" fill="none" fill-rule="evenodd">
        <g id="logo">
            <path d="M32,1.3 C32,0.6 31.4,0 30.7,0 L2.6,0 C1.2,0 0,1.2 0,2.6 L0,14.7 C0,16.1 0,30 0,30.7 C0,31.4 0.6,32 1.3,32 L29.4,32 C30.8,32 32,30.8 32,29.4 L32,17.3 C32,15.9 32,2 32,1.3 Z" id="Shape" fill="url(#linearGradient-1)" fill-rule="nonzero"></path>
            <text id="金安焊接设备" font-family="PingFangSC-Regular, PingFang SC" font-size="20" font-weight="normal" fill="#FFFFFF">
                <tspan x="40" y="23">金安焊接设备</tspan>
            </text>
            <g id="J" transform="translate(1.000000, 8.000000)" fill-rule="nonzero">
                <rect id="矩形" fill="#000000" opacity="0" x="0" y="0" width="16" height="16"></rect>
                <path d="M6.1686747,10.5899728 L6.46715895,10.5899728 C6.46715895,10.7951807 6.50446948,10.9879518 6.57909056,11.168286 C6.65371162,11.3486203 6.76564322,11.5165177 6.9024485,11.6595414 C7.03925378,11.8025651 7.20715119,11.9144967 7.38748542,11.9953362 C7.56781966,12.0761757 7.76059075,12.1134862 7.95958025,12.1197046 C8.15856975,12.125923 8.35755927,12.0886125 8.53789352,12.0202099 C8.71822775,11.9518072 8.89234358,11.8460941 9.03536728,11.7092888 C9.17839098,11.5724835 9.29654102,11.4108045 9.38359891,11.2304703 C9.46443839,11.050136 9.51418577,10.8635834 9.5204042,10.6583754 L9.52662262,10.577536 L9.52662262,0 L9.82510687,0 L9.82510687,10.577536 L9.81888845,10.6708123 C9.80645161,10.9071123 9.75048581,11.1371939 9.65099106,11.3548387 C9.55149631,11.566265 9.40847259,11.7652546 9.2405752,11.9269335 C9.06645939,12.0886125 8.86125145,12.212981 8.64360669,12.3000389 C8.42596192,12.3808783 8.18966188,12.4244073 7.95336183,12.4181889 C7.71084336,12.4119705 7.48076175,12.3622231 7.26933541,12.2689467 C7.05169064,12.1756704 6.85270112,12.0388651 6.69102216,11.8709677 C6.52312477,11.7030703 6.39253789,11.4978624 6.30547998,11.2802176 C6.21842208,11.0625729 6.1686747,10.8262728 6.1686747,10.5899728 Z" id="路径" fill="#F2F2F2"></path>
                <path d="M5.87019044,10.5899728 L6.1686747,10.5899728 C6.1686747,10.8324913 6.21842208,11.0625729 6.30547998,11.2802176 C6.39253789,11.4978624 6.52312475,11.6968519 6.69102216,11.8709677 C6.85891955,12.0388651 7.05790906,12.1756704 7.26933541,12.2689467 C7.48698017,12.3622231 7.7170618,12.4119705 7.95336183,12.4181889 C8.1958803,12.4244073 8.42596191,12.3808784 8.64360669,12.3000389 C8.86125145,12.2191994 9.06645939,12.0886125 9.2405752,11.9269335 C9.41469102,11.7652546 9.55771473,11.5724835 9.65099106,11.3548387 C9.75048581,11.1434124 9.80645161,10.9133307 9.81888845,10.6708123 L9.82510688,10.577536 L9.82510688,0 L10.1235911,0 L10.1235911,10.577536 L10.1173727,10.6832491 C10.1049359,10.9568597 10.0427517,11.2304703 9.92460163,11.4792072 C9.81267003,11.727944 9.64477263,11.9518072 9.44578313,12.1445783 C9.24679363,12.331131 9.00427516,12.4803731 8.74931986,12.5798679 C8.49436455,12.6793626 8.22075398,12.7228916 7.94092498,12.7166731 C7.66109598,12.7104547 7.39370384,12.6544889 7.14496697,12.5425573 C6.89623008,12.4306257 6.66614847,12.2751652 6.47337738,12.0761757 C6.2806063,11.8771862 6.12514573,11.6471045 6.02565098,11.3921492 C5.92615623,11.1371939 5.87019044,10.8635834 5.87019044,10.5899728 Z" id="路径" fill="#000000"></path>
                <path d="M5.57170617,10.5899728 L5.87019044,10.5899728 C5.87019044,10.8698018 5.92615623,11.1371939 6.02565098,11.3921492 C6.13136416,11.6471045 6.2806063,11.8771862 6.47337738,12.0761757 C6.66614845,12.2751652 6.89623008,12.4306257 7.14496697,12.5425573 C7.39370386,12.6544889 7.66731442,12.7104547 7.94092498,12.7166731 C8.22075398,12.7228916 8.49436455,12.6731442 8.74931986,12.5798679 C9.00427517,12.4803731 9.2405752,12.3373494 9.44578313,12.1445783 C9.64477263,11.9580257 9.81267003,11.727944 9.92460163,11.4792072 C10.0365332,11.2304703 10.1049359,10.9630781 10.1173727,10.6832491 L10.1235911,10.577536 L10.1235911,0 L10.4220754,0 L10.4220754,10.577536 L10.415857,10.695686 C10.4034201,11.0128255 10.3287991,11.3175282 10.1982122,11.6035756 C10.0676253,11.889623 9.88107267,12.1445783 9.65099106,12.3622231 C9.42090945,12.5736494 9.1535173,12.7477653 8.86125145,12.8534784 C8.56898561,12.96541 8.25806452,13.0151574 7.94092498,13.008939 C7.62378545,13.0027206 7.31908278,12.9343179 7.02681694,12.8099495 C6.74076952,12.685581 6.4795958,12.5052468 6.25573261,12.2813836 C6.03808784,12.0575204 5.86397202,11.7901283 5.745822,11.5040808 C5.63389041,11.211815 5.57170617,10.9071123 5.57170617,10.5899728 Z" id="路径" fill="#F2F2F2"></path>
                <path d="M5.27322192,10.5899728 L5.57170617,10.5899728 C5.57170617,10.9071123 5.63389039,11.2180334 5.75204042,11.5040808 C5.87019045,11.7901283 6.04430627,12.0575204 6.26195103,12.2813836 C6.4795958,12.5052468 6.74698795,12.685581 7.03303537,12.8099495 C7.3190828,12.9343179 7.63000389,13.0027205 7.94714341,13.008939 C8.26428294,13.0151574 8.57520403,12.9591916 8.86746987,12.8534784 C9.15973572,12.7415468 9.42712786,12.5736494 9.65720948,12.3622231 C9.88729109,12.1507967 10.0738438,11.889623 10.2044306,11.6035756 C10.3350175,11.3175282 10.4096385,11.0128255 10.4220754,10.695686 L10.4282938,10.577536 L10.4282938,0 L10.7267781,0 L10.7267781,10.577536 L10.7205597,10.7143412 C10.7081228,11.0687913 10.6210649,11.4108045 10.4718228,11.7341625 C10.3225807,12.051302 10.1111543,12.3435678 9.85619898,12.5798679 C9.60124367,12.8223863 9.296541,13.008939 8.96696462,13.1333074 C8.63738825,13.2576759 8.28915662,13.3198601 7.93470656,13.3136417 C7.5802565,13.3074232 7.23202487,13.2328022 6.90866692,13.0897785 C6.58530897,12.9529732 6.29304314,12.7477653 6.04430625,12.49281 C5.79556936,12.2440731 5.60279828,11.9393704 5.465993,11.6160124 C5.34162456,11.2926545 5.27322192,10.9444229 5.27322192,10.5899728 Z" id="路径" fill="#000000"></path>
                <path d="M4.97473766,10.5899728 L5.27322192,10.5899728 C5.27322192,10.9444229 5.34162456,11.2926545 5.47842984,11.6160124 C5.6090167,11.9393704 5.80800622,12.2378546 6.05674309,12.49281 C6.30547998,12.7477653 6.59774581,12.9467548 6.92110377,13.0897785 C7.24446172,13.2328022 7.59269334,13.3074232 7.94714341,13.3136417 C8.30159347,13.3198601 8.64982509,13.2638943 8.97940148,13.1333074 C9.30897786,13.008939 9.61368053,12.8161679 9.86863583,12.5798679 C10.1235911,12.3373494 10.3350175,12.051302 10.4842596,11.7341625 C10.6335018,11.4170229 10.7143412,11.0687913 10.7329965,10.7143412 L10.7392149,10.577536 L10.7392149,0 L11.0376992,0 L11.0376992,10.577536 L11.0314808,10.7267781 C11.0128255,11.1185387 10.9195492,11.5040808 10.7578702,11.8523125 C10.5961912,12.2067625 10.3598912,12.5301205 10.0738438,12.7912942 C9.78779634,13.0586864 9.45200156,13.2701127 9.08511466,13.406918 C8.71822775,13.5437233 8.33268558,13.6121259 7.94092498,13.6059075 C7.54916439,13.5996891 7.16362222,13.5126312 6.80295375,13.3571706 C6.44850369,13.2017101 6.11892733,12.9778469 5.84531675,12.6980179 C5.57170617,12.4181889 5.35406141,12.0886125 5.20481928,11.727944 C5.04935873,11.3672755 4.97473766,10.9817334 4.97473766,10.5899728 Z" id="路径" fill="#F2F2F2"></path>
                <path d="M4.67625341,10.5899728 L4.97473766,10.5899728 C4.97473766,10.9817334 5.04935872,11.3672756 5.19860086,11.7341625 C5.34784298,12.0948309 5.56548777,12.4244073 5.83909833,12.7042363 C6.11270889,12.9840653 6.43606684,13.2079285 6.79673533,13.363389 C7.15118539,13.5188496 7.54294598,13.6059075 7.93470656,13.6121259 C8.32646716,13.6183443 8.71822775,13.5561601 9.07889623,13.4131364 C9.44578314,13.2763311 9.78157792,13.0649048 10.0676253,12.7975126 C10.3536728,12.5301205 10.5837544,12.2067625 10.7516518,11.8585309 C10.9133307,11.5040808 11.0066071,11.1185387 11.0252623,10.7329965 L11.0314808,10.5837544 L11.0314808,0 L11.329965,0 L11.329965,10.577536 L11.3237466,10.7392149 C11.3050913,11.168286 11.2055966,11.5911388 11.0252623,11.9766809 C10.8449281,12.3684415 10.5899728,12.7166732 10.2790517,13.008939 C9.96813058,13.3012048 9.59502527,13.5312864 9.19704625,13.686747 C8.79906723,13.8422075 8.36999611,13.9106102 7.94092498,13.9043918 C7.51185386,13.8981733 7.08278273,13.804897 6.69102216,13.6307812 C6.29926156,13.4628838 5.93859308,13.2141469 5.64010883,12.9032258 C5.34162456,12.5985231 5.09910611,12.2316362 4.93742713,11.8336572 C4.76331131,11.448115 4.67625341,11.0190439 4.67625341,10.5899728 Z" id="路径" fill="#000000"></path>
                <path d="M4.37776914,10.5899728 L4.67625341,10.5899728 C4.67625341,11.0190439 4.76331131,11.448115 4.92499028,11.846094 C5.08666925,12.2440731 5.32918772,12.6047415 5.62767198,12.9156627 C5.92615625,13.2203653 6.28682472,13.4691022 6.67858531,13.643218 C7.07034591,13.8173338 7.49941703,13.9043918 7.92848814,13.9168286 C8.35755927,13.923047 8.78663039,13.8546444 9.18460941,13.6991838 C9.58258842,13.5499417 9.95569375,13.3136417 10.2666148,13.0213758 C10.577536,12.72911 10.8387097,12.3746599 11.0128255,11.9891178 C11.1931597,11.6035756 11.2926545,11.1745045 11.3113098,10.7516518 L11.3175282,10.5899728 L11.3175282,0 L11.6160124,0 L11.6160124,10.577536 L11.609794,10.7516518 C11.5911388,11.2180334 11.4792072,11.6781967 11.2802176,12.1010494 C11.0812281,12.5239021 10.8076176,12.9094442 10.4656044,13.2265837 C10.1235911,13.5437233 9.7193937,13.7986786 9.28410416,13.9603576 C8.84881461,14.128255 8.37621453,14.2090945 7.90983288,14.1966576 C7.44345122,14.1904392 6.97706956,14.084726 6.54799845,13.8981733 C6.11892733,13.7116207 5.72716673,13.4442285 5.40380878,13.1084337 C5.08045083,12.7726389 4.81305869,12.3746599 4.63894288,11.9455888 C4.47104548,11.5227361 4.37776914,11.0563545 4.37776914,10.5899728 L4.37776914,10.5899728 Z" id="路径" fill="#F2F2F2"></path>
                <path d="M4.07928487,10.5899728 L4.37776914,10.5899728 C4.37776914,11.0563545 4.47104547,11.5227361 4.6451613,11.9580257 C4.81927712,12.3933152 5.08045084,12.7850758 5.4100272,13.1208706 C5.73338516,13.4566654 6.12514573,13.7240575 6.55421687,13.9106102 C6.983288,14.0971628 7.44966966,14.1966576 7.9160513,14.2090944 C8.38243295,14.2215313 8.84881461,14.1406918 9.29032258,13.9727944 C9.72561212,13.804897 10.1298096,13.5561601 10.4718228,13.2390206 C10.813836,12.9218811 11.093665,12.5363389 11.2864361,12.1134862 C11.4854256,11.6906335 11.5973572,11.2242518 11.6160124,10.7640886 L11.6222309,10.5899728 L11.6222309,0 L11.9207151,0 L11.9207151,10.577536 L11.9144967,10.7640886 C11.889623,11.2677808 11.771473,11.771473 11.5600466,12.2254178 C11.3486203,12.685581 11.0439176,13.1022153 10.6770307,13.4442285 C10.3101438,13.7862418 9.87485425,14.0598523 9.39603575,14.2401865 C8.92343567,14.4205208 8.41352506,14.5075787 7.90983287,14.4951419 C7.40614069,14.482705 6.9024485,14.3769918 6.43606684,14.1717839 C5.96968519,13.9727944 5.54683248,13.6743101 5.19860086,13.3136417 C4.8441508,12.9529732 4.56432181,12.523902 4.37155072,12.051302 C4.17877964,11.5973572 4.07928487,11.093665 4.07928487,10.5899728 L4.07928487,10.5899728 Z" id="路径" fill="#000000"></path>
                <path d="M3.78080062,10.5899728 L4.07928487,10.5899728 C4.07928487,11.093665 4.17877962,11.6035756 4.37155072,12.0699572 C4.56432181,12.5363389 4.8441508,12.9716285 5.19860086,13.3322969 C5.55305092,13.6929654 5.97590363,13.9852312 6.43606684,14.1904392 C6.9024485,14.3956471 7.40614069,14.5013603 7.90983288,14.5137971 C8.41352506,14.526234 8.92343567,14.4391761 9.39603575,14.2588418 C9.86863583,14.0785076 10.3039254,13.804897 10.6770307,13.4628838 C11.0439176,13.1208706 11.3486203,12.7042363 11.5600466,12.2440731 C11.771473,11.7839098 11.8958414,11.2864361 11.9144967,10.7827439 L11.9207151,10.5961912 L11.9207151,0 L12.2191994,0 L12.2191994,10.577536 L12.212981,10.7765255 C12.1881073,11.3175282 12.0575204,11.8585309 11.8274388,12.3497862 C11.5973572,12.8410416 11.2739992,13.288768 10.8760202,13.6618733 C10.4780412,14.0349786 10.0116595,14.3272445 9.50174894,14.5200155 C8.99183833,14.7127866 8.44461719,14.806063 7.90361445,14.7936261 C7.36261173,14.7811893 6.81539059,14.6630393 6.31791683,14.4453945 C5.82044306,14.2277497 5.36027983,13.9106102 4.98095608,13.525068 C4.60163233,13.1395258 4.29692966,12.6731442 4.09172172,12.169452 C3.8865138,11.6781967 3.78080062,11.1309755 3.78080062,10.5899728 L3.78080062,10.5899728 Z" id="路径" fill="#F2F2F2"></path>
                <path d="M3.48231636,10.5899728 L3.78080062,10.5899728 C3.78080062,11.1309755 3.8865138,11.6781967 4.09172172,12.1818888 C4.29692964,12.685581 4.60163233,13.1519627 4.98095608,13.5375049 C5.36027983,13.923047 5.82044306,14.2401865 6.31791683,14.4578313 C6.81539059,14.6754761 7.36261173,14.7936261 7.90361445,14.806063 C8.44461717,14.8184998 8.99183831,14.7252235 9.50174894,14.5324524 C10.0116595,14.3396813 10.4780412,14.0474155 10.8760202,13.6743101 C11.2739992,13.3012048 11.5973572,12.8534784 11.8274388,12.3622231 C12.0575204,11.8709677 12.1881073,11.329965 12.212981,10.7889623 L12.2191994,10.5899728 L12.2191994,0 L12.5176836,0 L12.5176836,10.577536 L12.5114652,10.7951807 C12.4865915,11.373494 12.3435678,11.9518072 12.1010494,12.4803731 C11.8585309,13.008939 11.5102993,13.4877575 11.0812281,13.8857365 C10.6583754,14.2837155 10.1546833,14.5946366 9.60746211,14.806063 C9.06024097,15.0112709 8.4757093,15.1107657 7.89739603,15.0983288 C7.31908278,15.085892 6.73455111,14.9615235 6.19976681,14.7252235 C5.66498252,14.4951419 5.17994559,14.1531286 4.76952973,13.7364944 C4.3653323,13.3198601 4.03575592,12.8223863 3.81811116,12.287602 C3.59424797,11.7528177 3.48231636,11.168286 3.48231636,10.5899728 L3.48231636,10.5899728 Z" id="路径" fill="#000000"></path>
                <path d="M3.18383211,10.5899728 L3.48231636,10.5899728 C3.48231636,11.168286 3.59424795,11.7528177 3.81811116,12.2938204 C4.03575592,12.8348232 4.3653323,13.3322969 4.76952973,13.7427128 C5.17372717,14.1593471 5.66498252,14.4951419 6.19976681,14.7314419 C6.73455111,14.9677419 7.31908278,15.0921104 7.89739603,15.1045472 C8.47570928,15.1169841 9.06024095,15.0174893 9.60746211,14.8122814 C10.1546832,14.6070735 10.6583754,14.2899339 11.0812281,13.8919549 C11.5040808,13.4939759 11.8523125,13.0151574 12.1010494,12.4865915 C12.3435678,11.9580257 12.4865915,11.3797124 12.5114652,10.8013991 L12.5176836,10.5837544 L12.5176836,0 L12.8161679,0 L12.8161679,10.577536 L12.803731,10.8076176 C12.7788574,11.4232413 12.6296152,12.0450836 12.3684415,12.6047415 C12.1072678,13.170618 11.7341625,13.6805286 11.2802176,14.1033813 C10.8262728,14.526234 10.2914885,14.8620288 9.70695686,15.085892 C9.12864361,15.3097551 8.50058298,15.4154683 7.88495919,15.3968131 C7.26933541,15.3843762 6.64749319,15.2475709 6.07539837,14.998834 C5.50330355,14.7500972 4.98717452,14.3894287 4.55188495,13.9479207 C4.11659541,13.5064128 3.76836377,12.9778469 3.53828216,12.3995336 C3.30820055,11.8274388 3.18383211,11.2055966 3.18383211,10.5899728 L3.18383211,10.5899728 Z" id="路径" fill="#F2F2F2"></path>
                <path d="M2.58686358,10.5899728 L2.88534784,10.5899728 C2.88534784,11.2429071 3.0159347,11.9082783 3.26467159,12.5176836 C3.51340848,13.127089 3.88029537,13.6929654 4.34045861,14.1593471 C4.80062184,14.6319471 5.35406141,15.0112709 5.95724834,15.278663 C6.56043528,15.5398368 7.22580645,15.6828605 7.87874077,15.7015157 C8.53167508,15.7139526 9.19704625,15.602021 9.81267003,15.365721 C10.4282938,15.1294209 11.0003886,14.7749709 11.4792072,14.3272445 C11.9580257,13.8795181 12.3560047,13.3385154 12.6296152,12.7353284 C12.9094442,12.1383599 13.0649048,11.4792071 13.0959969,10.8262728 L13.1022153,10.7019044 L13.1084337,10.5837544 L13.1084337,0 L13.406918,0 L13.406918,10.577536 L13.4006996,10.7019044 L13.3944812,10.8324913 C13.363389,11.5289545 13.1954917,12.2191994 12.9032258,12.8534784 C12.61096,13.4877575 12.1943257,14.0598523 11.6844151,14.5386708 C11.1745045,15.0112709 10.5713175,15.3905946 9.9183832,15.6393315 C9.26544888,15.8880684 8.56276719,16.0062184 7.86630392,15.9937816 C7.16984066,15.9813447 6.47337738,15.8258842 5.83287991,15.5460552 C5.19238244,15.2662262 4.60785075,14.8620288 4.12281384,14.364555 C3.63777692,13.8670812 3.24601633,13.2763311 2.97862417,12.6233968 C2.72366887,11.9828993 2.58686358,11.2802176 2.58686358,10.5899728 Z" id="路径" fill="#F2F2F2"></path>
                <path d="M2.88534784,10.5899728 L3.18383211,10.5899728 C3.18383211,11.2055966 3.30820055,11.8336572 3.53828216,12.405752 C3.77458219,12.9840653 4.12281383,13.5126312 4.55188495,13.9541391 C4.9871745,14.3956471 5.50330353,14.7563156 6.07539837,15.0050525 C6.6474932,15.2537894 7.26933541,15.3905946 7.88495919,15.4030315 C8.50058297,15.4154683 9.12864361,15.3097552 9.70695686,15.0921104 C10.2914885,14.8682472 10.8262728,14.5324524 11.2802176,14.1095997 C11.7341625,13.686747 12.1072678,13.1768364 12.3684415,12.61096 C12.6296153,12.0450836 12.7788574,11.4294598 12.803731,10.813836 L12.8161679,10.5837544 L12.8161679,0 L13.1146522,0 L13.1146522,10.577536 L13.1084337,10.695686 L13.1022153,10.8200544 C13.0711232,11.4729887 12.9156627,12.1321415 12.6358337,12.72911 C12.3560047,13.3260785 11.9642441,13.8732996 11.4854256,14.321026 C11.0066071,14.7687524 10.4345122,15.1294209 9.81888845,15.3595025 C9.20326467,15.5958026 8.5378935,15.7077342 7.88495919,15.6952973 C7.23202487,15.6828605 6.5666537,15.5398368 5.96346677,15.2724446 C5.35406141,15.0112709 4.80684027,14.6257287 4.34667703,14.1531286 C3.8865138,13.6805286 3.51962689,13.1208706 3.27089002,12.5114652 C3.0159347,11.9082783 2.88534784,11.2429071 2.88534784,10.5899728 Z" id="路径" fill="#000000"></path>
            </g>
            <g id="A" transform="translate(14.000000, 8.000000)" fill="#000000" fill-rule="nonzero">
                <rect id="矩形" opacity="0" x="0" y="0" width="16" height="16"></rect>
                <path d="M13,15 L11.098,15 L9.7372,11.1675 L4.1848,11.1675 L2.902,15 L1,15 L6.0784,1 L7.9204,1 L13,15 Z M9,10 L7.20053619,4.00463519 C7.14369973,3.81356223 7.08257373,3.47708155 7.01608579,3 L6.97747989,3 C6.92064343,3.43502146 6.85630027,3.76909871 6.78552279,4.00463519 L5,10 L9,10 Z" id="形状"></path>
            </g>
        </g>
    </g>
</svg>